<?xml version="1.0" encoding="UTF-8" standalone="no"?>
<!DOCTYPE svg PUBLIC "-//W3C//DTD SVG 1.1//EN" "http://www.w3.org/Graphics/SVG/1.1/DTD/svg11.dtd">
<svg width="100%" height="100%" viewBox="0 0 220 241" version="1.1" xmlns="http://www.w3.org/2000/svg" xmlns:xlink="http://www.w3.org/1999/xlink" xml:space="preserve" xmlns:serif="http://www.serif.com/" style="fill-rule:evenodd;clip-rule:evenodd;stroke-linecap:round;stroke-linejoin:round;stroke-miterlimit:1.5;">
    <path d="M13.058,11.172L207.124,11.293L207.24,135.913C206.694,185.57 160.986,229.998 109.92,229.467C54.19,224.815 21.365,194.585 13.16,136.864L13.058,11.172ZM25.341,32.336L25.759,134.381C26.224,154.093 31.401,174.306 52.8,194.41C56.055,197.465 61.148,197.381 64.299,194.219L133.402,124.904C135.229,123.071 136.252,120.587 136.246,117.998C136.24,115.41 135.204,112.93 133.367,111.106L46.684,25.017C46.081,24.419 45.263,24.089 44.414,24.102L33.243,24.276C28.846,24.345 25.323,27.938 25.341,32.336ZM141.841,134.096C126.839,149.289 91.791,184.785 76.414,200.4C74.78,202.055 74.135,204.448 74.715,206.701C75.296,208.954 77.018,210.736 79.249,211.395C123.283,224.364 158.143,212.448 182.361,175.034C185.769,169.805 185.037,162.901 180.608,158.503L155.962,134.027C154.082,132.16 151.536,131.118 148.887,131.131C146.237,131.144 143.702,132.211 141.841,134.096ZM71.846,31.76L186.018,145.882C187.375,147.238 189.413,147.649 191.189,146.924C192.965,146.199 194.133,144.479 194.153,142.561L194.54,105.752C194.559,103.935 193.845,102.187 192.558,100.904L116.874,25.443C115.744,24.316 114.209,23.689 112.613,23.702L75.013,24.02C73.186,24.035 71.547,25.145 70.855,26.836C70.163,28.527 70.554,30.468 71.846,31.76ZM145.418,24.269C143.568,24.287 141.906,25.408 141.196,27.117C140.486,28.826 140.865,30.793 142.158,32.117L184.388,75.351C186.029,77.031 188.52,77.556 190.7,76.683C192.88,75.809 194.318,73.708 194.345,71.36L194.776,32.779C194.803,30.413 193.876,28.136 192.204,26.461C190.532,24.787 188.257,23.856 185.891,23.879L145.418,24.269Z" style="fill:white;stroke:black;stroke-width:1px;"/>
</svg>
